<svg xmlns="http://www.w3.org/2000/svg" aria-hidden="true" style="position:absolute;width:0;height:0;overflow:hidden">
    <defs>
        <symbol id="icon-arrow" viewBox="0 0 32 32">
            <path stroke-linecap="square" stroke-linejoin="round" stroke-width="3.556"
                d="m1.778 15.885 24.397-.243M17.099 4.287l11.596 11.596-11.83 11.83" />
        </symbol>
        <symbol id="icon-call" viewBox="0 0 32 32">
            <path stroke-miterlimit="10" stroke-width="2.37"
                d="M29.655 24.356c-1.092-1.1-3.738-2.706-5.021-3.354-1.671-.842-1.809-.911-3.123.065-.876.651-1.459 1.233-2.484 1.015s-3.254-1.452-5.205-3.397c-1.951-1.945-3.256-4.238-3.476-5.26s.372-1.598 1.017-2.476c.909-1.238.841-1.444.063-3.116-.606-1.3-2.259-3.92-3.363-5.007-1.182-1.167-1.182-.961-1.943-.644-.62.261-1.215.578-1.777.947-1.101.731-1.711 1.338-2.138 2.251s-.619 3.052 1.587 7.059 3.753 6.056 6.957 9.25 5.666 4.912 9.267 6.931c4.454 2.495 6.163 2.008 7.078 1.582s1.526-1.032 2.258-2.132c.37-.561.688-1.155.949-1.774.317-.759.523-.759-.646-1.94z" />
        </symbol>
        <symbol id="icon-little-arrow" viewBox="0 0 32 32">
            <path stroke-linecap="round" stroke-linejoin="round" stroke-width="3.2"
                d="m9.063 30.4 12.8-14.4-12.8-14.4" />
        </symbol>
        <symbol id="icon-logo" viewBox="0 0 32 32">
            <path d="M0 32h12.667v-8.942a3.43 3.43 0 1 1 6.86 0V32h12.47V0C14.325 0-.001 14.326-.001 32z" />
        </symbol>
        <symbol id="icon-search" viewBox="0 0 32 32">
            <path stroke-linecap="round" stroke-linejoin="round" stroke-width="2"
                d="M22.912 22.913 30 30.001M26.5 14.25c0 6.765-5.485 12.25-12.25 12.25S2 21.015 2 14.25C2 7.484 7.484 2 14.25 2S26.5 7.484 26.5 14.25z" />
        </symbol>
    </defs>
</svg>